<svg width="2992" height="1602" viewBox="0 0 2992 1602" fill="none" xmlns="http://www.w3.org/2000/svg">
<g id="Floor1" clip-path="url(#clip0_123_2)">
<rect width="2992" height="1602" fill="white"/>
<g id="Group 18">
<path id="Subtract" d="M2991 908H2481L2384 734.007V734H2991V908ZM2824.13 787.65C2819.89 787.65 2816.12 788.418 2812.82 789.952C2809.52 791.465 2806.92 793.542 2805.02 796.184C2803.13 798.826 2802.19 801.83 2802.21 805.196C2802.19 808.733 2803.21 811.856 2805.28 814.562C2807.37 817.246 2810.09 818.961 2813.46 819.707V820.154C2810.9 820.58 2808.58 821.571 2806.49 823.126C2804.43 824.66 2802.78 826.578 2801.57 828.879C2800.36 831.18 2799.76 833.706 2799.78 836.454C2799.76 839.991 2800.78 843.155 2802.85 845.946C2804.94 848.716 2807.81 850.9 2811.48 852.498C2815.16 854.096 2819.38 854.895 2824.13 854.895C2828.86 854.895 2833.05 854.096 2836.7 852.498C2840.36 850.9 2843.24 848.716 2845.32 845.946C2847.41 843.155 2848.46 839.991 2848.46 836.454C2848.46 833.706 2847.84 831.18 2846.6 828.879C2845.39 826.578 2843.75 824.66 2841.68 823.126C2839.64 821.571 2837.33 820.58 2834.78 820.154V819.707C2838.08 818.961 2840.78 817.246 2842.86 814.562C2844.97 811.856 2846.03 808.733 2846.03 805.196C2846.03 801.83 2845.07 798.826 2843.15 796.184C2841.26 793.542 2838.66 791.465 2835.35 789.952C2832.07 788.418 2828.33 787.65 2824.13 787.65ZM2713.25 788.546L2690.21 854H2702.86L2708.27 837.86H2732.88L2738.31 854H2750.96L2727.89 788.546H2713.25ZM2824.13 824.916C2826.46 824.916 2828.52 825.374 2830.33 826.29C2832.17 827.206 2833.61 828.474 2834.65 830.094C2835.71 831.692 2836.26 833.535 2836.28 835.623C2836.26 837.626 2835.75 839.395 2834.75 840.929C2833.74 842.463 2832.34 843.656 2830.53 844.508C2828.72 845.339 2826.58 845.754 2824.13 845.754C2821.66 845.754 2819.51 845.328 2817.68 844.476C2815.87 843.623 2814.46 842.441 2813.46 840.929C2812.46 839.395 2811.97 837.626 2811.99 835.623C2811.97 833.535 2812.48 831.692 2813.52 830.094C2814.59 828.474 2816.04 827.206 2817.87 826.29C2819.7 825.374 2821.79 824.916 2824.13 824.916ZM2720.82 801.969L2729.68 828.336H2711.47L2720.31 801.969H2720.82ZM2759.36 816.511V826.035H2788.83V816.511H2759.36ZM2824.13 796.919C2826.16 796.919 2827.95 797.313 2829.5 798.102C2831.06 798.869 2832.27 799.966 2833.15 801.394C2834.02 802.8 2834.47 804.44 2834.49 806.315C2834.47 808.212 2834.01 809.884 2833.12 811.333C2832.22 812.782 2831 813.911 2829.44 814.721C2827.91 815.53 2826.14 815.936 2824.13 815.936C2822.11 815.936 2820.31 815.53 2818.73 814.721C2817.18 813.89 2815.95 812.761 2815.06 811.333C2814.18 809.884 2813.76 808.212 2813.78 806.315C2813.76 804.44 2814.17 802.8 2815.03 801.394C2815.9 799.966 2817.11 798.869 2818.67 798.102C2820.25 797.313 2822.07 796.919 2824.13 796.919Z" fill="#0496FF"/>
</g>
<g id="Group 12">
<path id="Subtract_2" d="M759 1229.69V1602H365V925H587L759 1229.69ZM614.935 1211.65C610.695 1211.65 606.87 1212.44 603.461 1214.02C600.052 1215.57 597.325 1217.74 595.279 1220.54C593.255 1223.31 592.2 1226.52 592.115 1230.19H603.525C603.589 1228.36 604.142 1226.78 605.187 1225.46C606.23 1224.11 607.605 1223.08 609.31 1222.36C611.014 1221.63 612.868 1221.27 614.871 1221.27C616.916 1221.27 618.695 1221.65 620.208 1222.42C621.742 1223.19 622.925 1224.26 623.756 1225.65C624.608 1227.01 625.023 1228.62 625.002 1230.48C625.023 1232.37 624.544 1234.04 623.564 1235.49C622.584 1236.92 621.231 1238.03 619.505 1238.82C617.8 1239.6 615.808 1240 613.528 1240H607.744V1249.14H613.528C616.298 1249.14 618.664 1249.57 620.624 1250.42C622.605 1251.27 624.118 1252.45 625.162 1253.97C626.206 1255.48 626.718 1257.23 626.696 1259.21C626.718 1261.12 626.217 1262.82 625.194 1264.29C624.172 1265.76 622.754 1266.91 620.943 1267.74C619.132 1268.55 617.055 1268.96 614.711 1268.96C612.516 1268.96 610.535 1268.59 608.767 1267.87C606.998 1267.14 605.581 1266.13 604.516 1264.83C603.45 1263.51 602.864 1261.97 602.758 1260.2H590.741C590.869 1263.88 591.966 1267.13 594.033 1269.95C596.1 1272.76 598.913 1274.95 602.471 1276.53C606.05 1278.11 610.141 1278.89 614.743 1278.89C619.431 1278.89 623.586 1278.07 627.208 1276.43C630.851 1274.79 633.706 1272.53 635.772 1269.66C637.861 1266.76 638.905 1263.48 638.905 1259.81C638.927 1255.72 637.701 1252.3 635.229 1249.56C632.779 1246.79 629.253 1245.08 624.65 1244.44V1243.93C628.187 1243.16 631.043 1241.53 633.216 1239.04C635.41 1236.55 636.497 1233.46 636.476 1229.77C636.476 1226.45 635.592 1223.41 633.823 1220.66C632.055 1217.91 629.551 1215.73 626.312 1214.11C623.095 1212.47 619.302 1211.65 614.935 1211.65ZM504.249 1212.55L481.205 1278H493.861L499.274 1261.86H523.883L529.306 1278H541.962L518.887 1212.55H504.249ZM511.823 1225.97L520.683 1252.34H502.469L511.312 1225.97H511.823ZM550.359 1240.51V1250.04H579.826V1240.51H550.359Z" fill="#0496FF"/>
</g>
<g id="Group 13">
<path id="Subtract_3" d="M733.002 382.619L732.158 603.867L585.498 906.898L-5 903.995L-2.99902 379L733.002 382.619ZM268.247 602.546L245.203 668H257.859L263.272 651.86H287.881L293.304 668H305.96L282.885 602.546H268.247ZM371.206 602.546L354.938 612.996V623.863L370.248 614.083H370.631V668H382.488V602.546H371.206ZM275.821 615.969L284.681 642.336H266.467L275.31 615.969H275.821ZM314.357 630.511V640.035H343.824V630.511H314.357Z" fill="#0496FF"/>
</g>
<g id="Group 11">
<rect id="Rectangle 70" y="925" width="348" height="677" fill="#0496FF"/>
<path id="A-2" d="M104.862 1287H92.2053L115.249 1221.55H129.886L152.962 1287H140.305L122.823 1234.97H122.312L104.862 1287ZM105.277 1261.34H139.794V1270.86H105.277V1261.34ZM190.827 1249.51V1259.03H161.359V1249.51H190.827ZM200.582 1287V1278.43L223.306 1256.16C225.479 1253.96 227.29 1252.01 228.739 1250.31C230.188 1248.61 231.275 1246.95 231.999 1245.36C232.724 1243.76 233.086 1242.05 233.086 1240.24C233.086 1238.18 232.617 1236.41 231.68 1234.94C230.742 1233.45 229.453 1232.29 227.812 1231.49C226.172 1230.68 224.308 1230.27 222.219 1230.27C220.067 1230.27 218.182 1230.72 216.562 1231.61C214.943 1232.49 213.686 1233.73 212.791 1235.35C211.918 1236.97 211.481 1238.9 211.481 1241.14H200.199C200.199 1236.98 201.147 1233.37 203.043 1230.3C204.94 1227.23 207.55 1224.86 210.874 1223.18C214.219 1221.49 218.054 1220.65 222.379 1220.65C226.768 1220.65 230.625 1221.47 233.949 1223.11C237.273 1224.75 239.851 1227 241.683 1229.86C243.537 1232.71 244.464 1235.97 244.464 1239.63C244.464 1242.09 243.995 1244.49 243.058 1246.86C242.12 1249.22 240.469 1251.84 238.104 1254.72C235.76 1257.6 232.468 1261.08 228.228 1265.17L216.946 1276.64V1277.09H245.455V1287H200.582Z" fill="white"/>
</g>
<g id="Group 14">
<rect id="Rectangle 80" x="1224" width="339" height="488" transform="rotate(90 1224 0)" fill="#0496FF"/>
<path id="A-4" d="M909.862 179H897.205L920.249 113.545H934.886L957.962 179H945.305L927.823 126.969H927.312L909.862 179ZM910.277 153.336H944.794V162.86H910.277V153.336ZM995.827 141.511V151.035H966.359V141.511H995.827ZM1006.69 166.855V157.427L1034.46 113.545H1042.32V126.969H1037.53L1018.83 156.596V157.107H1057.6V166.855H1006.69ZM1037.91 179V163.979L1038.04 159.76V113.545H1049.22V179H1037.91Z" fill="white"/>
</g>
<g id="Group 15">
<rect id="Rectangle 79" x="1804" width="339" height="564" transform="rotate(90 1804 0)" fill="#0496FF"/>
<path id="A-5" d="M1451.86 180H1439.21L1462.25 114.545H1476.89L1499.96 180H1487.31L1469.82 127.969H1469.31L1451.86 180ZM1452.28 154.336H1486.79V163.86H1452.28V154.336ZM1537.83 142.511V152.035H1508.36V142.511H1537.83ZM1572.62 180.895C1568.36 180.895 1564.55 180.096 1561.18 178.498C1557.81 176.879 1555.14 174.663 1553.16 171.85C1551.2 169.038 1550.16 165.82 1550.03 162.198H1561.53C1561.75 164.883 1562.91 167.077 1565.02 168.782C1567.13 170.465 1569.66 171.307 1572.62 171.307C1574.95 171.307 1577.01 170.774 1578.82 169.709C1580.63 168.643 1582.06 167.163 1583.11 165.266C1584.15 163.37 1584.66 161.207 1584.64 158.778C1584.66 156.307 1584.14 154.112 1583.07 152.195C1582.01 150.277 1580.55 148.775 1578.7 147.688C1576.84 146.58 1574.71 146.026 1572.3 146.026C1570.34 146.005 1568.42 146.367 1566.52 147.113C1564.62 147.859 1563.12 148.839 1562.01 150.053L1551.31 148.295L1554.73 114.545H1592.69V124.453H1564.54L1562.65 141.808H1563.04C1564.25 140.38 1565.96 139.197 1568.18 138.26C1570.4 137.301 1572.83 136.822 1575.47 136.822C1579.43 136.822 1582.97 137.759 1586.08 139.634C1589.19 141.488 1591.64 144.045 1593.43 147.305C1595.22 150.565 1596.11 154.293 1596.11 158.491C1596.11 162.816 1595.11 166.673 1593.11 170.06C1591.13 173.427 1588.37 176.08 1584.83 178.018C1581.32 179.936 1577.25 180.895 1572.62 180.895Z" fill="white"/>
</g>
<g id="Group 16">
<rect id="Rectangle 78" x="2310" width="339" height="488" transform="rotate(90 2310 0)" fill="#0496FF"/>
<path id="A-6" d="M2013.86 179H2001.21L2024.25 113.545H2038.89L2061.96 179H2049.31L2031.82 126.969H2031.31L2013.86 179ZM2014.28 153.336H2048.79V162.86H2014.28V153.336ZM2099.83 141.511V151.035H2070.36V141.511H2099.83ZM2135.84 179.895C2132.71 179.874 2129.65 179.33 2126.67 178.265C2123.68 177.178 2121 175.42 2118.61 172.991C2116.22 170.541 2114.33 167.292 2112.92 163.244C2111.52 159.174 2110.82 154.135 2110.84 148.126C2110.84 142.523 2111.44 137.526 2112.63 133.137C2113.83 128.748 2115.54 125.04 2117.78 122.015C2120.02 118.968 2122.71 116.646 2125.87 115.048C2129.04 113.45 2132.59 112.651 2136.51 112.651C2140.62 112.651 2144.26 113.46 2147.44 115.08C2150.64 116.699 2153.21 118.915 2155.17 121.727C2157.13 124.518 2158.35 127.672 2158.82 131.188H2147.15C2146.56 128.673 2145.33 126.67 2143.48 125.179C2141.64 123.666 2139.32 122.91 2136.51 122.91C2131.97 122.91 2128.48 124.881 2126.03 128.822C2123.6 132.764 2122.37 138.176 2122.35 145.058H2122.8C2123.84 143.183 2125.19 141.575 2126.86 140.232C2128.52 138.89 2130.39 137.857 2132.48 137.132C2134.59 136.386 2136.82 136.013 2139.16 136.013C2143 136.013 2146.44 136.93 2149.48 138.762C2152.55 140.594 2154.98 143.119 2156.77 146.337C2158.56 149.533 2159.45 153.197 2159.42 157.331C2159.45 161.635 2158.47 165.502 2156.48 168.933C2154.5 172.342 2151.74 175.026 2148.21 176.987C2144.67 178.947 2140.55 179.916 2135.84 179.895ZM2135.77 170.307C2138.1 170.307 2140.17 169.742 2142.01 168.613C2143.84 167.484 2145.29 165.96 2146.35 164.043C2147.42 162.125 2147.94 159.973 2147.92 157.587C2147.94 155.243 2147.43 153.123 2146.38 151.227C2145.36 149.33 2143.94 147.828 2142.13 146.72C2140.32 145.612 2138.26 145.058 2135.93 145.058C2134.21 145.058 2132.6 145.388 2131.11 146.049C2129.62 146.71 2128.32 147.626 2127.21 148.798C2126.1 149.948 2125.23 151.29 2124.59 152.825C2123.97 154.337 2123.65 155.957 2123.63 157.683C2123.65 159.962 2124.18 162.061 2125.23 163.979C2126.27 165.896 2127.71 167.43 2129.54 168.581C2131.37 169.732 2133.45 170.307 2135.77 170.307Z" fill="white"/>
</g>
<g id="Group 17">
<path id="Subtract_4" d="M2991 722H2380.38L2315 617L2315 722H2315V383H2991V722ZM2630.25 525.546L2607.21 591H2619.86L2625.27 574.86H2649.88L2655.31 591H2667.96L2644.89 525.546H2630.25ZM2713.33 525.546V535.453H2745.64V535.9L2717.8 591H2730.11L2757.91 535.677V525.546H2713.33ZM2637.82 538.969L2646.68 565.336H2628.47L2637.31 538.969H2637.82ZM2676.36 553.511V563.035H2705.83V553.511H2676.36Z" fill="#0496FF"/>
</g>
<rect id="Rectangle 85" x="786.5" y="644.5" width="1445" height="527" rx="237.5" fill="white" stroke="#605959" stroke-width="3"/>
<g id="Group 19">
<path id="Subtract_5" d="M2992 1094H2385V1093.99L2482 920H2992V1094ZM2825.59 971.65C2820.86 971.608 2816.73 972.577 2813.19 974.559C2809.65 976.519 2806.89 979.204 2804.91 982.613C2802.95 986.001 2801.97 989.826 2801.97 994.087C2801.99 998.199 2802.89 1001.85 2804.66 1005.05C2806.45 1008.24 2808.87 1010.76 2811.91 1012.59C2814.98 1014.42 2818.43 1015.34 2822.27 1015.34C2824.61 1015.34 2826.83 1014.98 2828.92 1014.25C2831.02 1013.53 2832.91 1012.5 2834.57 1011.15C2836.23 1009.79 2837.59 1008.17 2838.63 1006.3H2839.08C2839.08 1013.31 2837.85 1018.78 2835.4 1022.72C2832.95 1026.66 2829.46 1028.64 2824.92 1028.64C2822.11 1028.64 2819.77 1027.88 2817.92 1026.37C2816.09 1024.83 2814.87 1022.77 2814.28 1020.17H2802.61C2803.06 1023.79 2804.26 1027.01 2806.22 1029.82C2808.18 1032.63 2810.75 1034.85 2813.93 1036.47C2817.12 1038.09 2820.79 1038.89 2824.92 1038.89C2828.86 1038.89 2832.41 1038.1 2835.56 1036.5C2838.72 1034.9 2841.41 1032.58 2843.65 1029.53C2845.89 1026.48 2847.6 1022.76 2848.79 1018.34C2850.01 1013.91 2850.61 1008.88 2850.58 1003.26C2850.58 997.293 2849.88 992.286 2848.47 988.238C2847.07 984.19 2845.17 980.961 2842.79 978.554C2840.4 976.125 2837.71 974.378 2834.73 973.312C2831.77 972.226 2828.72 971.672 2825.59 971.65ZM2715.25 972.546L2692.21 1038H2704.86L2710.27 1021.86H2734.88L2740.31 1038H2752.96L2729.89 972.546H2715.25ZM2722.82 985.969L2731.68 1012.34H2713.47L2722.31 985.969H2722.82ZM2761.36 1000.51V1010.04H2790.83V1000.51H2761.36ZM2825.62 981.238C2827.97 981.238 2830.04 981.814 2831.86 982.965C2833.69 984.115 2835.13 985.639 2836.17 987.535C2837.24 989.431 2837.77 991.498 2837.77 993.735C2837.79 995.418 2837.48 997.017 2836.84 998.529C2836.22 1000.04 2835.35 1001.39 2834.22 1002.59C2833.11 1003.76 2831.81 1004.68 2830.32 1005.34C2828.83 1006 2827.22 1006.33 2825.5 1006.33C2823.17 1006.33 2821.11 1005.77 2819.29 1004.67C2817.51 1003.56 2816.09 1002.06 2815.04 1000.16C2814.02 998.263 2813.5 996.153 2813.48 993.831C2813.48 991.487 2814 989.367 2815.04 987.471C2816.11 985.553 2817.56 984.041 2819.39 982.933C2821.24 981.803 2823.32 981.238 2825.62 981.238Z" fill="#0496FF"/>
</g>
<g id="Group 20">
<path id="Subtract_6" d="M2315 1210L2381 1104H2992V1602H2315V1104H2315L2315 1210ZM2786.3 1322.65C2781.06 1322.65 2776.56 1323.97 2772.78 1326.61C2769.03 1329.26 2766.15 1333.09 2764.12 1338.12C2762.12 1343.13 2761.11 1349.2 2761.09 1356.34C2761.09 1363.47 2762.09 1369.58 2764.09 1374.65C2766.11 1379.7 2769 1383.57 2772.75 1386.25C2776.52 1388.91 2781.04 1390.25 2786.3 1390.25C2791.57 1390.25 2796.07 1388.91 2799.82 1386.25C2803.59 1383.59 2806.48 1379.73 2808.48 1374.68C2810.51 1369.61 2811.52 1363.5 2811.52 1356.34C2811.52 1349.22 2810.51 1343.15 2808.48 1338.12C2806.48 1333.09 2803.59 1329.26 2799.82 1326.61C2796.05 1323.97 2791.55 1322.65 2786.3 1322.65ZM2631.25 1323.55L2608.21 1389H2620.86L2626.27 1372.86H2650.88L2656.31 1389H2668.96L2645.89 1323.55H2631.25ZM2734.21 1323.55L2717.94 1334V1344.86L2733.25 1335.08H2733.63V1389H2745.49V1323.55H2734.21ZM2786.3 1332.53C2789.01 1332.53 2791.35 1333.43 2793.33 1335.24C2795.32 1337.03 2796.85 1339.7 2797.94 1343.23C2799.02 1346.77 2799.57 1351.14 2799.57 1356.34C2799.57 1364.2 2798.37 1370.15 2795.99 1374.2C2793.62 1378.23 2790.39 1380.24 2786.3 1380.24C2783.58 1380.24 2781.22 1379.35 2779.24 1377.56C2777.26 1375.75 2775.72 1373.06 2774.64 1369.5C2773.57 1365.95 2773.05 1361.56 2773.07 1356.34C2773.09 1348.54 2774.29 1342.63 2776.65 1338.6C2779.02 1334.55 2782.23 1332.53 2786.3 1332.53ZM2638.82 1336.97L2647.68 1363.34H2629.47L2638.31 1336.97H2638.82ZM2677.36 1351.51V1361.04H2706.83V1351.51H2677.36Z" fill="#0496FF"/>
</g>
<rect id="Rectangle 82" x="903.5" y="818.5" width="138" height="149" rx="19.5" fill="white" stroke="black"/>
<path id="Rectangle 81" d="M1009.55 873.805L1009.55 891.497L936.452 951L936.452 935.625L1009.55 873.805Z" fill="#605959"/>
<ellipse id="Ellipse 4" cx="963.5" cy="864" rx="9.5" ry="10" fill="#605959"/>
<ellipse id="Ellipse 5" cx="963.5" cy="902.5" rx="9.5" ry="22.5" fill="#605959"/>
<rect id="Rectangle 83" x="2007.5" y="818.5" width="138" height="149" rx="19.5" fill="white" stroke="black"/>
<path id="Rectangle 84" d="M2113.55 873.805L2113.55 891.497L2040.45 951L2040.45 935.625L2113.55 873.805Z" fill="#605959"/>
<ellipse id="Ellipse 6" cx="2067.5" cy="864" rx="9.5" ry="10" fill="#605959"/>
<ellipse id="Ellipse 7" cx="2067.5" cy="902.5" rx="9.5" ry="22.5" fill="#605959"/>
<path id="Polygon 5" d="M1543.5 1513L1584.64 1579.75H1502.36L1543.5 1513Z" fill="#605959"/>
</g>
<defs>
<clipPath id="clip0_123_2">
<rect width="2992" height="1602" fill="white"/>
</clipPath>
</defs>
</svg>
